<svg xmlns="http://www.w3.org/2000/svg" viewBox="0 0 512 512">
  <rect width="512" height="512" rx="100" fill="#0ea5e9"/>
  <path d="M256 120c-75 0-136 61-136 136s61 136 136 136 136-61 136-136-61-136-136-136zm0 240c-57.4 0-104-46.6-104-104s46.6-104 104-104 104 46.6 104 104-46.6 104-104 104z" fill="white"/>
  <path d="M256 180c-42 0-76 34-76 76s34 76 76 76 76-34 76-76-34-76-76-76zm0 120c-24.3 0-44-19.7-44-44s19.7-44 44-44 44 19.7 44 44-19.7 44-44 44z" fill="white"/>
  <circle cx="256" cy="256" r="24" fill="white"/>
</svg>
